<svg viewBox="0 0 240 240" xmlns="http://www.w3.org/2000/svg">
  <!-- outer badge -->
  <circle cx="120" cy="120" r="116" fill="#EBDFC9" stroke="#CBB489" stroke-width="3"/>

  <!-- loose crayon scribble ring, hand-drawn energy around the heart -->
  <g fill="none" stroke="#B84A2A" stroke-width="3.2" stroke-linecap="round" opacity="0.85">
    <path d="M 65 78 C 40 95, 38 140, 60 165 C 78 186, 110 194, 140 188" />
    <path d="M 178 168 C 202 148, 205 100, 182 75 C 166 58, 140 50, 116 52" />
    <path d="M 60 100 C 52 118, 54 136, 66 150" opacity="0.6"/>
    <path d="M 176 92 C 186 108, 184 128, 172 142" opacity="0.6"/>
  </g>
  <g fill="none" stroke="#D69A3E" stroke-width="2.4" stroke-linecap="round" opacity="0.7">
    <path d="M 82 62 C 100 50, 128 48, 150 58"/>
    <path d="M 150 182 C 128 194, 100 194, 80 182"/>
  </g>

  <!-- clay heart -->
  <g>
    <path d="M120 168
             C 78 140, 54 112, 54 86
             C 54 64, 71 50, 90 50
             C 104 50, 115 58, 120 70
             C 125 58, 136 50, 150 50
             C 169 50, 186 64, 186 86
             C 186 112, 162 140, 120 168 Z"
          fill="#F6EFDE" stroke="#C1552E" stroke-width="3"/>
    <!-- subtle scribble texture on the heart, echoing charcoal drawings -->
    <g fill="none" stroke="#DDCBA5" stroke-width="1.6" stroke-linecap="round" opacity="0.8">
      <path d="M 82 92 C 95 86, 108 96, 120 90"/>
      <path d="M 96 108 C 108 102, 118 112, 132 104"/>
      <path d="M 100 124 C 112 120, 122 128, 134 122"/>
    </g>
  </g>

  <!-- found-object decorations glued on the heart: stone, shell, glass bead -->
  <circle cx="94" cy="88" r="10" fill="#3E4F7A"/>
  <circle cx="94" cy="88" r="4" fill="#F6EFDE" opacity="0.55"/>

  <path d="M 140 100 C 148 94, 160 96, 163 106 C 165 114, 156 120, 147 118 C 140 116, 136 106, 140 100 Z"
        fill="#3E7A6D"/>
  <path d="M 145 104 C 149 102, 155 104, 156 109" fill="none" stroke="#6E9E8E" stroke-width="1.4" stroke-linecap="round"/>

  <path d="M 108 128 C 116 124, 126 128, 126 135 C 126 141, 118 144, 111 141 C 105 139, 103 132, 108 128 Z"
        fill="#D69A3E"/>

  <!-- tiny paper confetti scraps scattered around, referencing the tissue-paper box -->
  <g opacity="0.9">
    <rect x="36" y="150" width="14" height="6" rx="2" fill="#C77B72" transform="rotate(-18 43 153)"/>
    <rect x="188" y="60" width="14" height="6" rx="2" fill="#7A5C8E" transform="rotate(24 195 63)"/>
    <rect x="46" y="66" width="12" height="6" rx="2" fill="#D69A3E" transform="rotate(12 52 69)"/>
    <rect x="182" y="152" width="12" height="6" rx="2" fill="#3E7A6D" transform="rotate(-20 188 155)"/>
  </g>
</svg>
